<svg xmlns="http://www.w3.org/2000/svg" width="60" height="210" viewBox="0 0 212.59843 744.09448"><path fill="#4b4b4b" d="M53.1498 106.2992c29.3547 0 53.1496-23.7917 53.1496-53.1496C106.2994 23.7988 82.5044 0 53.1498 0 23.7986 0 .0002 23.7988.0002 53.1496c0 29.358 23.7984 53.1496 53.1496 53.1496"/><path fill="#6f6f6e" d="M22.4093 69.2955C45.983 30.66 52.587 19.9235 52.682 20.0805c.0605.0995 7.7974 12.9132 17.1932 28.475L86.9586 76.85l-1.2935.1027c-.711.0563-2.931.1377-4.932.1805l-3.638.078-3.38-5.5155-3.712-5.5155-35.258.2093-3.624 5.4278-3.624 5.4278H17.56l4.8506-7.949zm17.7963-11.8517l24.2045-.144-12.045-18.554z"/><path fill="none" d="M23.989 73.3644c.198-.3712 10.867-17.8662 21.8094-35.7632 3.5082-5.738 6.463-10.525 6.566-10.638.215-.2362-.451-1.2845 7.9637 12.5348 7.55 12.3976 17.241 28.424 19.118 31.614l1.488 2.529-.901.048c-.593.032-.966-.0222-1.091-.158-.104-.1134-1.631-2.5718-3.393-5.463-1.761-2.8914-3.261-5.2928-3.331-5.3365-.07-.0437-8.934-.0316-19.695.0272l-19.567.1068-3.623 5.4272-3.624 5.4273h-.953c-.939 0-.951-.006-.764-.356zm30.7936-12.448c15.0583 0 15.8892-.0145 15.8206-.2766-.1194-.4562-17.4188-26.8305-18.0363-27.4978l-.324-.3494-.285.361C50.956 34.4264 34.093 60.476 34.093 60.751c0 .262.541.3104 2.675.2378 1.1666-.0397 9.273-.0722 18.014-.0722z"/><path fill="#4a484c" d="M159.4488 106.2992c29.3547 0 53.1496-23.7917 53.1496-53.1496C212.5984 23.7988 188.8034 0 159.4488 0c-29.351 0-53.1496 23.7988-53.1496 53.1496 0 29.358 23.7985 53.1496 53.1496 53.1496"/><path fill="#fff" d="M128.6698 69.2956c23.5735-38.6356 30.1776-49.372 30.2728-49.215.0603.0995 7.797 12.9132 17.193 28.475L193.219 76.85l-1.2936.1028c-.7115.0563-2.931.1378-4.9323.1806l-3.638.078-3.38-5.5156-3.712-5.5154-35.258.2093-3.624 5.4278-3.624 5.4278h-9.936l4.851-7.9497zM146.466 57.444l24.2045-.1442-12.0458-18.554z"/><path fill="none" d="M130.2494 73.3644c.198-.371 10.867-17.866 21.8094-35.763 3.5082-5.738 6.463-10.5252 6.566-10.6383.215-.236-.451-1.284 7.9637 12.535 7.549 12.398 17.2406 28.424 19.1176 31.614l1.489 2.529-.901.049c-.593.032-.966-.022-1.091-.158-.104-.113-1.631-2.572-3.393-5.463-1.762-2.891-3.261-5.292-3.332-5.336-.07-.043-8.934-.031-19.695.028l-19.567.107-3.623 5.428-3.623 5.427h-.953c-.939 0-.951-.005-.764-.355zm30.7936-12.448c15.0582 0 15.889-.0144 15.8205-.2765-.1194-.457-17.4186-26.831-18.0362-27.498l-.3233-.35-.2843.361c-1.002 1.273-17.8657 27.322-17.8657 27.597 0 .262.541.31 2.675.237 1.1666-.04 9.273-.072 18.014-.072z"/><path fill="#4b4b4b" d="M53.1496 212.5984c29.3583 0 53.1496-23.798 53.1496-53.1478 0-29.3534-23.7913-53.1514-53.1496-53.1514C23.7984 106.2992 0 130.0972 0 159.4506c0 29.3498 23.7984 53.1478 53.1496 53.1478"/><path fill="#6f6f6e" d="M54.0205 191.6425c12.9858.0186 22.6768-3.6908 27.656-10.7092.087-.1227 1.5558.2854 2.792 1.1688 1.2868.92 2.235 2.081 2.7692 1.613.5275-.462-1.0204-1.67-2.1894-2.543-1.2036-.899-2.6815-1.279-2.6128-1.398.5634-.973 1.3104-2.664 1.7076-3.747.107-.291 5.414 1.782 5.606.905.194-.888-5.35-1.81-5.271-2.102.571-2.119.999-4.646.954-7.133-.058-3.218-3.435-10.585-7.5-14.561 0 0 1.926-5.707 1.921-9.168-.003-2.786-2.304-7.718-2.304-7.718-3.99-1.347-12.939 6.654-15.438 7.695 0 0-2.397-1.512-8.483-1.632-5.699.13-8.65 1.401-8.65 1.401-2.743-.67-13.108-8.169-17.41-7.387 0 0-1.068 5.602-1.04 8.387.034 3.287 1.905 8.23 1.905 8.23-4.851 5.401-5.821 8.78-5.821 14.754.063 2.308.357 4.458.866 6.446.06.233-6.085 1.424-5.612 2.587.523 1.284 6.126-1.059 6.197-.836.345 1.0806.756 2.106 1.231 3.0755.094.191-1.577.8054-3.23 1.6253-2.08 1.0795-2.516 2.124-2.078 2.512.922.385 1.88-.6404 3.0628-1.3443 1.515-.688 2.72-1.3428 2.8153-1.193 4.949 7.716 15.2136 11.714 28.161 11.075"/><text x="138.7697" y="597.2856" fill="#4b4b4b" style="line-height:125%" font-size="40" font-family="sans-serif" letter-spacing="0" word-spacing="0" transform="translate(-106.317 -415.096)"><tspan x="138.7697" y="597.2856" style="-inkscape-font-specification:HGMaruGothicMPRO" font-size="35" font-family="HGMaruGothicMPRO">Cr</tspan></text><path fill="#3387a1" d="M159.4488 212.5984c29.3583 0 53.1496-23.798 53.1496-53.1478 0-29.3534-23.7913-53.1514-53.1496-53.1514-29.351 0-53.1496 23.798-53.1496 53.1514 0 29.3498 23.7985 53.1478 53.1496 53.1478"/><path fill="#fff" d="M160.3197 191.6426c12.9858.0187 22.6768-3.6907 27.656-10.709.087-.1228 1.5558.2853 2.792 1.1687 1.2868.9195 2.235 2.0805 2.7692 1.6122.527-.4625-1.021-1.6698-2.19-2.543-1.204-.8988-2.682-1.279-2.613-1.3978.563-.973 1.31-2.6644 1.707-3.7477.106-.2912 5.413 1.782 5.605.9044.194-.8884-5.35-1.8105-5.271-2.1024.571-2.1188.999-4.6457.954-7.133-.059-3.2184-3.436-10.585-7.501-14.5613 0 0 1.925-5.7072 1.921-9.1682-.004-2.7865-2.304-7.7185-2.304-7.7185-3.99-1.3467-12.939 6.6546-15.439 7.695 0 0-2.397-1.512-8.484-1.6318-5.7.13-8.65 1.4008-8.65 1.4008-2.743-.6698-13.108-8.1685-17.41-7.387 0 0-1.069 5.602-1.041 8.387.033 3.2868 1.904 8.2302 1.904 8.2302-4.851 5.401-5.822 8.7798-5.822 14.7538.063 2.308.356 4.458.866 6.446.0592.2325-6.086 1.424-5.612 2.587.5223 1.2835 6.125-1.0596 6.196-.8366.344 1.0806.7552 2.1057 1.231 3.0755.093.191-1.577.805-3.23 1.625-2.0807 1.08-2.5167 2.124-2.079 2.512.9217.385 1.88-.641 3.0624-1.344 1.515-.688 2.7194-1.343 2.815-1.193 4.949 7.716 15.2137 11.714 28.161 11.075"/><text x="138.7697" y="597.2856" fill="#3387a1" style="line-height:125%" font-size="40" font-family="sans-serif" letter-spacing="0" word-spacing="0" transform="translate(-.017 -415.096)"><tspan x="138.7697" y="597.2856" style="-inkscape-font-specification:HGMaruGothicMPRO" font-size="35" font-family="HGMaruGothicMPRO">Cr</tspan></text><path fill="none" d="M128.723 73.2306c0-.065 4.6754-7.7828 10.39-17.1505l14.001-22.951c1.986-3.255 3.7408-5.879 3.8994-5.831.3344.102 4.3448 6.617 18.131 29.455 8.917 14.772 9.853 16.45 9.228 16.547-.3825.059-.8088-.083-.947-.316-.1385-.233-1.6596-2.7-3.3803-5.482l-3.128-5.058-19.782-.081-19.782-.081-3.602 5.513c-2.858 4.374-3.749 5.518-4.314 5.535-.391.011-.712-.032-.712-.096zM164.281 60.81c9.519-.1817 10.9578-.272 10.8018-.6784-.4833-1.2582-18.1025-27.8853-18.4422-27.8707-.1277.007-.6043.61-1.059 1.343-.455.733-4.486 6.999-8.958 13.925-4.4722 6.925-8.2088 12.793-8.3038 13.04-.202.526 7.3252.595 25.9612.24z"/><path fill="none" d="M128.723 73.2306c0-.065 4.6754-7.7828 10.39-17.1505l14.001-22.951c1.986-3.255 3.7408-5.879 3.8994-5.831.3344.102 4.3448 6.617 18.131 29.455 8.917 14.772 9.853 16.45 9.228 16.547-.3825.059-.8088-.083-.947-.316-.1385-.233-1.6596-2.7-3.3803-5.482l-3.128-5.058-19.782-.081-19.782-.081-3.602 5.513c-2.858 4.374-3.749 5.518-4.314 5.535-.391.011-.712-.032-.712-.096zM164.281 60.81c9.519-.1817 10.9578-.272 10.8018-.6784-.4833-1.2582-18.1025-27.8853-18.4422-27.8707-.1277.007-.6043.61-1.059 1.343-.455.733-4.486 6.999-8.958 13.925-4.4722 6.925-8.2088 12.793-8.3038 13.04-.202.526 7.3252.595 25.9612.24z"/><path fill="none" d="M128.52 73.0098c.4788-.821 12.2158-20.0498 19.9042-32.6094 3.801-6.209 7.2685-11.8793 7.706-12.601.7632-1.2588.802-1.3023.963-1.077.771 1.0794 14.8967 24.306 24.1867 39.7696 3.365 5.6023 4.093 6.8845 3.953 6.9627-.095.0527-.537.081-.983.063l-.812-.0318-3.357-5.518-3.357-5.518-8.549.068c-4.702.038-13.524.068-19.605.068h-11.056l-3.654 5.476-3.654 5.477h-1.998l.309-.531zm46.6025-12.417c.086-.0846-1.0936-1.9172-8.4283-13.095-7.9783-12.1584-9.4302-14.338-9.7386-14.6204l-.2817-.2577-.894 1.3196c-1.754 2.5912-12.706 19.4127-15.596 23.9534-1.675 2.6315-1.711 2.6947-1.575 2.779.155.0958 36.414.0176 36.512-.0787z"/><path fill="none" d="M129.7105 72.7125c1.018-1.9003 27.905-45.691 28.095-45.758.2717-.096-.4027-1.1593 7.9704 12.5674 10.114 16.58 20.253 33.419 20.253 33.636 0 .104-.392.187-.87.182-.788-.007-1.184-.532-4.193-5.56l-3.323-5.553-6.328.184c-3.481.101-12.339.184-19.684.185l-13.356.001-3.571 5.374c-3.202 4.819-3.662 5.374-4.454 5.374-.787 0-.846-.07-.543-.636zm46.306-12.4046c-.282-.462-9.886-15.157-14.7732-22.604-1.8542-2.826-3.4492-5.138-3.5445-5.138-.3116 0-17.612 26.477-18.0564 27.633-.175.456 1.5195.502 18.2112.502 14.641 0 18.3548-.081 18.163-.395z"/><path fill="none" d="M124.7713 74.1094c.9692-1.5866 5.322-8.7175 9.673-15.8464 16.144-26.4507 23.5135-38.4088 23.6024-38.2976.02.0248 1.8368 3.0324 4.0378 6.6838 5.669 9.4045 20.2728 33.5972 25.4838 42.2165 2.4217 4.0058 4.446 7.3945 4.4982 7.5305.083.216-.241.2596-2.5653.343-1.463.0528-3.631.1347-4.8174.1814l-2.1572.0854-3.38-5.534-3.38-5.5337-14.6337-.004c-8.049-.003-16.083.043-17.854.1002l-3.22.104-3.624 5.4278-3.624 5.4278h-9.803l1.762-2.884zm9.9826-5.888l3.6-5.3744 8.027-.081 8.027-.081-8.106-.0377-8.107-.0372-2.712 4.071c-3.378 5.071-4.175 6.156-4.74 6.448-.559.289-.924.295-1.03.018-.113-.292 4.987-8.723 20.214-33.421 6.978-11.319 7.762-12.562 7.964-12.629.088-.028.616.676 1.173 1.568 3.128 5.006 21.379 35.096 24.935 41.109 1.728 2.923 1.938 3.353 1.684 3.447-.632.234-1.161-.045-1.844-.971-.3687-.5-1.9098-2.984-3.4247-5.52l-2.754-4.61-1.661.11c-.914.06-5.5058.161-10.2045.223l-8.543.114 10.104.007c8.269.007 10.139.047 10.2984.221.1074.117 1.534 2.419 3.17 5.114 3.839 6.323 3.4244 5.77 4.322 5.767 1.1483-.004 1.2802-.159.826-.976-.916-1.646-10.374-17.326-19.337-32.058-8.616-14.162-8.689-14.277-8.912-14.043-.2914.306-28.491 46.42-28.6668 46.877-.067.175.132.209 1.004.171l1.088-.047 3.601-5.3742zm32.339-7.6268c-3.727-.0248-9.778-.0248-13.448 0s-.621.043 6.775.043c7.396 0 10.398-.0178 6.672-.043zm7.636-2.365c-5.173-7.9554-15.134-23.1233-15.904-24.2178-.515-.7322-1.043-1.364-1.174-1.404-.133-.0407-.052.1275.185.3828.367.3965 7.114 10.6005 15.476 23.4074 1.43 2.191 2.63 3.9543 2.666 3.9185.036-.0358-.527-.975-1.25-2.0868zm-31.389-3.6812c3.948-6.1395 10.545-16.256 12.757-19.561.771-1.152 1.368-2.0945 1.327-2.0945-.326 0-17.808 26.793-17.808 27.291 0 .16-.132.36 3.724-5.636zm25.913 2.55l.448-.1-1.725-2.687c-1.982-3.0868-4.897-7.5648-8.008-12.299-1.228-1.8688-2.232-3.245-2.326-3.1874-.331.2043-10.97 16.4373-11.85 18.0803l-.177.3303 11.594-.0177c6.377-.011 11.796-.064 12.042-.119z"/><path fill="#231f20" d="M159.4488 318.8976c29.3547 0 53.1496-23.798 53.1496-53.1513 0-29.3534-23.795-53.148-53.1496-53.148-29.3582 0-53.1496 23.7946-53.1496 53.148 0 29.3533 23.7914 53.1513 53.1496 53.1513"/><g fill="#fff"><path fill-rule="evenodd" d="M159.8843 222.21c-24.3612 0-44.1156 19.7645-44.1156 44.146 0 19.505 12.6405 36.0528 30.169 41.8902 2.2047.4086 3.0142-.9577 3.0142-2.1237 0-1.0527-.041-4.5302-.06-8.219-12.273 2.6704-14.863-5.2087-14.863-5.2087-2.007-5.1027-4.899-6.4595-4.899-6.4595-4.003-2.74.301-2.6836.301-2.6836 4.43.3106 6.762 4.55 6.762 4.55 3.934 6.7482 10.32 4.797 12.837 3.669.396-2.8532 1.539-4.8014 2.801-5.903-9.799-1.1164-20.099-4.9017-20.099-21.8173 0-4.8197 1.723-8.7578 4.545-11.8494-.458-1.1126-1.968-5.602.427-11.6827 0 0 3.704-1.1865 12.135 4.525 3.519-.978 7.293-1.4686 11.042-1.4854 3.749.016 7.526.507 11.051 1.485 8.42-5.712 12.119-4.525 12.119-4.525 2.401 6.08.89 10.57.432 11.682 2.8287 3.091 4.5404 7.029 4.5404 11.849 0 16.956-10.3205 20.689-20.144 21.782 1.5822 1.37 2.992 4.056 2.992 8.175 0 5.907-.051 10.661-.051 12.115 0 1.175.794 2.551 3.0303 2.118 17.519-5.844 30.1434-22.386 30.1434-41.885 0-24.382-19.752-44.146-44.115-44.146"/><path d="M132.4775 285.5942c-.0972.22-.442.285-.756.1345-.32-.144-.4998-.443-.396-.663.095-.2252.4405-.288.7597-.1375.3207.144.5034.446.3923.666m1.787 1.9943c-.2105.195-.6218.1045-.9008-.204-.2886-.3078-.3427-.7194-.1293-.9175.217-.1944.6158-.103.905.204.2887.3114.345.72.125.9175m1.7394 2.5425c-.2703.188-.7123.0117-.9855-.381-.2703-.3924-.2703-.8632.006-1.0518.274-.1886.7094-.0182.9863.3706.2695.3992.2695.87-.007 1.0622m2.3832 2.4563c-.2418.2668-.7568.1952-1.1338-.169-.3857-.356-.493-.861-.2505-1.128.2447-.2674.7627-.192 1.1425.169.3828.3553.4997.864.2418 1.128m3.2874 1.4263c-.1066.3457-.6026.503-1.1023.356-.499-.1514-.826-.5563-.725-.9058.103-.348.602-.5117 1.105-.3545.498.1506.825.5526.721.9043m3.61.2646c.012.364-.412.666-.936.6726-.528.0117-.954-.283-.96-.6412 0-.3677.414-.6667.941-.6754.524-.0103.954.282.954.644m3.36-.5724c.062.3553-.302.72-.823.8173-.512.094-.987-.125-1.052-.478-.064-.364.308-.729.819-.823.522-.09.988.123 1.055.484"/></g><path fill="#4b4b4b" d="M53.1496 318.8976c29.3547 0 53.1496-23.798 53.1496-53.1513 0-29.3534-23.795-53.148-53.1496-53.148C23.7913 212.5983 0 236.393 0 265.7463c0 29.3534 23.7913 53.1514 53.1496 53.1514"/><g fill="#6f6f6e"><path fill-rule="evenodd" d="M53.585 222.21c-24.361 0-44.1155 19.7645-44.1155 44.146 0 19.505 12.6404 36.0528 30.169 41.8902 2.2047.4086 3.014-.9577 3.014-2.1237 0-1.0527-.0408-4.5302-.0598-8.219-12.273 2.6704-14.8627-5.2087-14.8627-5.2087-2.0068-5.1027-4.8983-6.4595-4.8983-6.4595-4.0026-2.74.3017-2.6836.3017-2.6836 4.43.3106 6.7626 4.55 6.7626 4.55 3.9347 6.7482 10.3203 4.797 12.8377 3.669.396-2.8532 1.5393-4.8014 2.801-5.903-9.7988-1.1164-20.0994-4.9017-20.0994-21.8173 0-4.8197 1.7234-8.7578 4.5455-11.8494-.458-1.1126-1.968-5.602.4273-11.6827 0 0 3.705-1.1865 12.135 4.525 3.519-.978 7.293-1.4686 11.042-1.4854 3.75.016 7.526.507 11.052 1.485 8.42-5.712 12.12-4.525 12.12-4.525 2.402 6.08.891 10.57.433 11.682 2.829 3.091 4.541 7.029 4.541 11.849 0 16.956-10.32 20.689-20.144 21.782 1.583 1.37 2.993 4.056 2.993 8.175 0 5.907-.051 10.661-.051 12.115 0 1.175.794 2.551 3.031 2.118 17.519-5.844 30.143-22.386 30.143-41.885 0-24.382-19.751-44.146-44.115-44.146"/><path d="M26.1783 285.5942c-.0972.22-.442.285-.756.1345-.32-.144-.4998-.443-.396-.663.095-.2252.4405-.288.7597-.1375.3207.144.5033.446.3923.666m1.787 1.9943c-.2105.195-.6218.1045-.901-.204-.2884-.3078-.3425-.7194-.1292-.9175.217-.1944.616-.103.906.204.289.3114.345.72.125.9175m1.739 2.5425c-.27.188-.712.0117-.985-.381-.27-.3924-.27-.8632.006-1.0518.274-.1886.71-.0182.987.3706.27.3992.27.87-.007 1.0622m2.383 2.4563c-.242.2668-.757.1952-1.134-.169-.385-.356-.493-.861-.25-1.128.245-.2674.763-.192 1.143.169.383.3553.5.864.242 1.128m3.288 1.4263c-.106.3457-.602.503-1.102.356-.499-.1514-.825-.5563-.724-.9058.104-.348.602-.5117 1.106-.3545.499.1506.826.5526.722.9043m3.61.2646c.013.364-.411.666-.935.6726-.528.0117-.954-.283-.96-.6412 0-.3677.414-.6667.9415-.6754.5248-.0103.954.282.954.644m3.36-.5724c.063.3553-.3015.72-.8224.8173-.512.094-.9867-.125-1.0517-.478-.0633-.364.3078-.729.819-.823.5218-.09.9886.123 1.055.484"/></g><path fill="#0096db" d="M159.4102 425.1968c29.3547 0 53.1496-23.7917 53.1496-53.1496 0-29.3508-23.795-53.1496-53.1496-53.1496-29.3512 0-53.1496 23.7988-53.1496 53.1496 0 29.358 23.7984 53.1496 53.1496 53.1496"/><text x="131.5576" y="837.3691" transform="matrix(1.0204 0 0 .98057 -.05 -415.125)" style="line-height:125%" font-size="54.231" font-family="sans-serif" letter-spacing="0" word-spacing="0"><tspan x="131.5576" y="837.3691" fill="#fff" style="-inkscape-font-specification:'Calligraph421 BT'" font-size="81.3465" font-family="Calligraph421 BT">P</tspan></text><path fill="#4b4b4b" d="M53.1496 425.1968c29.3547 0 53.1496-23.7917 53.1496-53.1496 0-29.3508-23.795-53.1496-53.1496-53.1496C23.7984 318.8976 0 342.6964 0 372.0472c0 29.358 23.7984 53.1496 53.1496 53.1496"/><text x="131.5576" y="837.3691" fill="#6f6f6e" transform="matrix(1.0204 0 0 .98057 -106.31 -415.125)" style="line-height:125%" font-size="54.231" font-family="sans-serif" letter-spacing="0" word-spacing="0"><tspan x="131.5576" y="837.3691" style="-inkscape-font-specification:'Calligraph421 BT'" font-size="81.3465" font-family="Calligraph421 BT">P</tspan></text><path fill="#1b3752" d="M159.4488 531.496c29.3547 0 53.1496-23.797 53.1496-53.1495 0-29.3524-23.795-53.1496-53.1496-53.1496-29.3582 0-53.1496 23.797-53.1496 53.149s23.7914 53.149 53.1496 53.149"/><path fill="#fff" d="M167.5457 488.6795c-1.5712 0-2.6813 1.2265-2.6813 2.7316 0 1.344.94 2.406 2.3452 2.406 1.6152 0 2.726-1.181 2.726-2.688.0008-1.384-.9387-2.448-2.39-2.448zm18.7133-14.17h-7.179l.097-.5775c.5367-3.0865 1.7552-5.5557 4.2716-5.5557.728 0 1.3734.1183 1.8714.348l.6833-2.5464c-.4597-.271-1.296-.502-2.5543-.502-1.602 0-3.205.579-4.3864 1.659-1.6413 1.505-2.558 3.898-3.0095 6.48l-.147.693-2.144.013-.701 2.758 2.331-.014-2.921 16.548h3.17l2.898-16.549h4.548c-.147.993-.295 1.919-.492 2.992l-2.52 13.577h3.093l1.754-9.714c.722-3.978 3.624-7.065 5.912-7.065 2.326 0 2.748 1.623 2.748 3.201 0 .735-.0782 1.431-.2294 2.277l-2.1367 11.301h3.0537l1.8264-9.908c.764-4.169 3.512-6.872 5.8-6.872 2.056 0 2.7818 1.273 2.7818 3.241 0 .77-.111 1.7-.262 2.431l-2.063 11.1065h3.087l2.14-11.3763c.193-1.0417.306-2.315.306-3.1628 0-3.511-2.3663-4.901-4.4993-4.901-2.748.0376-5.114 1.4654-6.75 4.1644-.158-2.351-1.488-4.164-4.3128-4.164-2.441 0-4.766 1.3114-6.4836 3.9334h-.075l.4745-3.705m-47.011 7.594c-1.4785-.7445-2.2357-1.409-2.2357-2.192 0-1.06.9464-1.687 2.428-1.687 1.591 0 2.9166.4743 3.674.823l1.3286-3.9927c-.911-.5102-2.617-.98-4.778-.98-4.777 0-8.149 2.624-8.149 6.6198 0 2.392 1.7795 3.997 3.904 5.091 1.7075.8657 2.3135 1.528 2.3135 2.4736 0 .9385-.7975 1.723-2.3513 1.723-1.783 0-3.754-.7845-4.813-1.3344l-1.329 3.9582c1.103.8223 3.3 1.446 5.649 1.484 4.928.041 8.532-2.344 8.532-6.734 0-2.6646-2.125-4.1948-4.173-5.2517zm25.6403-7.71h-6.744l-4.981 5.986c-.532.6685-1.102 1.411-1.666 2.155h-.0793l3.3876-17.334h-5.42l-5.432 28.5h5.4177l1.136-6.1485 2.0476-2.038 3.467 8.186h6.108l-5.369-11.244 8.127-8.0626zm-34.7547.649c-1.552-.507-3.746-.929-5.9813-.929-9.099 0-13.269 6.894-13.269 13.3583 0 3.996 2.274 6.66 5.611 6.66 2.159 0 4.55-1.0572 6.254-4.231h.0766c-.0767 1.374-.2548 2.6626-.294 3.8h5.069c-.0776-2.387.3-6.1482.757-8.6192l1.775-10.0382zm-6.817 7.924c-.872 4.7033-2.956 6.882-4.587 6.882-1.5165 0-2.158-1.551-2.158-3.431 0-3.565 2.435-8.124 5.9594-8.124.567 0 1.204.169 1.621.245l-.835 4.4282z"/><path fill="#4b4b4b" d="M53.1496 531.496c29.3547 0 53.1496-23.7972 53.1496-53.1496s-23.795-53.1496-53.1496-53.1496C23.7913 425.1968 0 448.994 0 478.3464s23.7913 53.1496 53.1496 53.1496"/><path fill="#6f6f6e" d="M61.2465 488.6795c-1.5712 0-2.6813 1.2264-2.6813 2.7316 0 1.344.94 2.406 2.3452 2.406 1.6152 0 2.726-1.181 2.726-2.688.0007-1.384-.9387-2.448-2.39-2.448zm18.7135-14.17h-7.179l.097-.5775c.5365-3.0866 1.755-5.5558 4.2714-5.5558.728 0 1.3734.1184 1.8714.3482l.6833-2.5466c-.459-.2704-1.296-.5013-2.554-.5013-1.602 0-3.205.579-4.386 1.659-1.641 1.5053-2.558 3.8982-3.009 6.4808l-.148.6932-2.144.0137-.701 2.758 2.331-.014-2.921 16.5486h3.169l2.898-16.5485h4.549c-.147.9932-.296 1.9193-.492 2.9917l-2.521 13.5773h3.093l1.754-9.714c.722-3.9778 3.624-7.065 5.912-7.065 2.326 0 2.748 1.6234 2.748 3.2017 0 .7354-.078 1.431-.229 2.277l-2.137 11.3006h3.054l1.827-9.908c.764-4.1686 3.5117-6.8714 5.8-6.8714 2.0556 0 2.781 1.273 2.781 3.2413 0 .7706-.1104 1.7005-.262 2.4316l-2.063 11.107h3.087l2.14-11.376c.193-1.042.306-2.315.306-3.163 0-3.51-2.367-4.901-4.5-4.901-2.7472.038-5.114 1.466-6.75 4.165-.1573-2.351-1.488-4.164-4.312-4.164-2.4415 0-4.766 1.312-6.4837 3.934h-.075l.475-3.705m-47.011 7.595c-1.4784-.744-2.2356-1.409-2.2356-2.192 0-1.06.9464-1.687 2.428-1.687 1.591 0 2.917.475 3.674.823l1.329-3.992c-.911-.51-2.617-.98-4.7782-.98-4.7763 0-8.1485 2.624-8.1485 6.62 0 2.393 1.78 3.997 3.904 5.091 1.7077.866 2.3137 1.528 2.3137 2.474 0 .939-.798 1.723-2.352 1.723-1.783 0-3.754-.784-4.8135-1.334l-1.329 3.958c1.103.822 3.3 1.446 5.649 1.484 4.9285.041 8.532-2.344 8.532-6.734-.0002-2.6643-2.1252-4.1945-4.1732-5.2514zm25.6404-7.71h-6.744l-4.981 5.987c-.532.668-1.102 1.411-1.666 2.154h-.079l3.388-17.334h-5.421l-5.432 28.501h5.4173l1.135-6.148 2.048-2.0372 3.467 8.186h6.108l-5.369-11.244 8.127-8.0625zm-34.755.649c-1.5512-.507-3.746-.929-5.981-.929-9.0983 0-13.269 6.894-13.269 13.359 0 3.996 2.274 6.66 5.611 6.66 2.1596 0 4.5506-1.058 6.255-4.231h.076c-.076 1.374-.2546 2.662-.294 3.8h5.069c-.0778-2.387.3-6.148.757-8.62l1.775-10.039zm-6.8164 7.924c-.872 4.703-2.956 6.882-4.5878 6.882-1.5165 0-2.158-1.551-2.158-3.431 0-3.564 2.4352-8.124 5.9594-8.124.5666 0 1.2036.169 1.621.245l-.8354 4.429z"/><path fill="#e8476d" d="M159.4488 637.7953c29.3547 0 53.1496-23.798 53.1496-53.1514 0-29.35-23.795-53.148-53.1496-53.148-29.3582 0-53.1496 23.798-53.1496 53.148 0 29.353 23.7914 53.151 53.1496 53.151"/><path fill="#fff" d="M121.4814 558.8712c-.553 0-1 .4473-1 1.0006v52.0324c0 .5533.447 1.0006 1 1.0006h75.995c.553 0 1-.4473 1-1.0006v-52.0324c0-.5533-.447-1.0006-1-1.0006h-75.995zm68.8114 6.0037l-30.814 22.608-30.814-22.608h61.628zm2.184 42.026H126.481v-36.184l29.45 21.607 3.5478 2.601 3.5478-2.603 29.45-21.607V606.9z"/><path fill="#4b4b4b" d="M53.1496 637.7953c29.3547 0 53.1496-23.798 53.1496-53.1514 0-29.35-23.795-53.148-53.1496-53.148C23.7913 531.496 0 555.294 0 584.644c0 29.3533 23.7913 53.1513 53.1496 53.1513"/><path fill="#6f6f6e" d="M15.182 558.8712c-.5528 0-.9998.4473-.9998 1.0006v52.0324c0 .5533.447 1.0006 1 1.0006h75.995c.553 0 1-.4473 1-1.0006v-52.0324c0-.5533-.447-1.0006-1-1.0006H15.182zm68.8116 6.0037l-30.814 22.608-30.814-22.608h61.628zm2.184 42.026h-65.996v-36.184l29.45 21.607 3.548 2.601 3.5477-2.603 29.45-21.607V606.9z"/><path fill="#64c914" d="M159.4488 744.0945c29.3547 0 53.1496-23.798 53.1496-53.1514 0-29.349-23.795-53.147-53.1496-53.147-29.3582 0-53.1496 23.798-53.1496 53.148 0 29.354 23.7914 53.152 53.1496 53.152"/><path fill="none" stroke="#fff" stroke-width="8.8583" d="M157.192 716.8434c7.2188 0 13.8194-2.5843 18.8847-6.857.1682-.1473 11.4092 9.6355 11.4092 9.6355s-10.522-10.452-10.332-10.641c5.441-5.394 8.852-13.782 8.941-20.365 0-15.587-12.941-28.225-28.904-28.225-15.966 0-28.904 12.638-28.904 28.224 0 15.588 12.938 28.226 28.904 28.226"/><path fill="#4b4b4b" d="M53.1496 744.0945c29.3547 0 53.1496-23.798 53.1496-53.1514 0-29.349-23.795-53.147-53.1496-53.147C23.7913 637.796 0 661.594 0 690.943c0 29.3535 23.7913 53.1515 53.1496 53.1515"/><path fill="none" stroke="#6f6f6e" stroke-width="8.8583" d="M50.8928 716.8434c7.2188 0 13.8193-2.5843 18.8846-6.857.1683-.1473 11.4093 9.6355 11.4093 9.6355S70.665 709.17 70.8552 708.981c5.4416-5.3942 8.8526-13.7818 8.9416-20.3644 0-15.5865-12.9403-28.2245-28.904-28.2245-15.9658 0-28.904 12.638-28.904 28.225 0 15.589 12.9382 28.227 28.904 28.227"/></svg>