<svg xmlns="http://www.w3.org/2000/svg" width="60px" height="180px" viewBox="0 0 212.59843 637.79527"><path fill="#4b4b4b" d="M53.21 106.488c29.356 0 53.153-23.776 53.153-53.115C106.363 24.043 82.566.26 53.21.26 23.855.26.055 24.04.055 53.372c0 29.34 23.8 53.115 53.153 53.115"/><path fill="#6f6f6e" d="M22.465 69.17C46.04 30.536 52.643 19.8 52.738 19.957c.06.1 7.798 12.913 17.193 28.475l17.09 28.295-1.29.103c-.71.056-2.93.137-4.93.18l-3.64.078-3.38-5.515-3.71-5.515-35.26.21-3.62 5.427-3.62 5.428h-9.94l4.85-7.95zm17.797-11.85l24.204-.145L52.42 38.62z"/><path fill="none" d="M24.045 73.24c.198-.372 10.867-17.867 21.81-35.764 3.508-5.738 6.462-10.525 6.565-10.638.215-.236-.45-1.284 7.964 12.535 7.55 12.398 17.24 28.424 19.118 31.614l1.488 2.53-.9.047c-.594.032-.968-.022-1.093-.158-.104-.113-1.63-2.572-3.393-5.463-1.76-2.89-3.26-5.293-3.332-5.337-.07-.043-8.933-.03-19.695.028l-19.568.107-3.63 5.43-3.62 5.43h-.96c-.94 0-.96 0-.77-.35zM54.84 60.79c15.057 0 15.888-.013 15.82-.275-.12-.456-17.42-26.83-18.037-27.498l-.323-.35-.285.362C51.013 34.3 34.15 60.35 34.15 60.62c0 .262.54.31 2.675.238 1.166-.04 9.273-.072 18.014-.072z"/><path fill="#4a484c" d="M159.47 106.488c29.357 0 53.153-23.776 53.153-53.115 0-29.33-23.796-53.114-53.153-53.114-29.353 0-53.153 23.78-53.153 53.11 0 29.34 23.8 53.11 53.153 53.11"/><path fill="#fff" d="M128.726 69.17C152.3 30.536 158.904 19.8 159 19.957l17.19 28.473 17.083 28.295-1.293.103c-.712.056-2.93.137-4.932.18l-3.64.078-3.38-5.515-3.712-5.51-35.26.21-3.622 5.43-3.624 5.43h-9.936l4.85-7.95zm17.796-11.85l24.205-.145L158.68 38.62z"/><path fill="none" d="M130.306 73.24c.198-.372 10.867-17.867 21.81-35.764 3.507-5.738 6.462-10.525 6.565-10.638.22-.236-.45-1.284 7.97 12.535 7.55 12.398 17.24 28.424 19.12 31.614l1.49 2.53-.9.047c-.59.032-.96-.022-1.09-.158-.1-.113-1.63-2.572-3.39-5.463-1.76-2.89-3.26-5.293-3.33-5.336-.07-.044-8.93-.032-19.69.027l-19.57.107-3.62 5.43-3.62 5.43h-.95c-.94 0-.95 0-.76-.35zM161.1 60.79c15.058 0 15.89-.015 15.82-.277-.12-.456-17.42-26.83-18.036-27.498l-.324-.35-.284.362c-1.002 1.27-17.866 27.32-17.866 27.596 0 .262.54.31 2.675.238 1.167-.04 9.273-.07 18.014-.07z"/><path fill="#4b4b4b" d="M53.21 212.74c29.36 0 53.152-23.782 53.152-53.114 0-29.335-23.793-53.118-53.153-53.118S.05 130.29.05 159.626c0 29.332 23.8 53.115 53.153 53.115"/><path fill="#6f6f6e" d="M54.077 191.517c12.985.02 22.676-3.69 27.656-10.71.087-.12 1.556.287 2.792 1.17 1.287.92 2.235 2.08 2.77 1.612.526-.47-1.02-1.67-2.19-2.55-1.204-.9-2.682-1.28-2.613-1.4.563-.98 1.31-2.67 1.707-3.75.1-.29 5.41 1.78 5.6.9.19-.89-5.35-1.81-5.27-2.1.57-2.12 1-4.65.95-7.14-.06-3.22-3.44-10.59-7.5-14.56 0 0 1.92-5.71 1.92-9.17 0-2.79-2.31-7.72-2.31-7.72-3.99-1.35-12.94 6.65-15.44 7.69 0 0-2.4-1.51-8.49-1.63-5.7.13-8.65 1.4-8.65 1.4-2.75-.67-13.11-8.17-17.41-7.39 0 0-1.07 5.6-1.04 8.38.03 3.29 1.9 8.23 1.9 8.23-4.85 5.4-5.82 8.78-5.82 14.75.06 2.31.35 4.46.86 6.44.06.23-6.09 1.42-5.62 2.59.52 1.28 6.12-1.06 6.2-.84.34 1.08.75 2.1 1.23 3.07.09.19-1.58.8-3.23 1.62-2.08 1.08-2.52 2.12-2.08 2.51.92.39 1.88-.64 3.06-1.34 1.51-.69 2.72-1.34 2.81-1.2 4.95 7.71 15.21 11.71 28.16 11.07"/><text x="138.77" y="597.286" fill="#4b4b4b" style="line-height:125%" font-size="40" font-family="sans-serif" letter-spacing="0" word-spacing="0" transform="translate(-106.26 -415.22)"><tspan x="138.77" y="597.286" style="-inkscape-font-specification:HGMaruGothicMPRO" font-size="35" font-family="HGMaruGothicMPRO">Cr</tspan></text><path fill="#3387a1" d="M159.47 212.74c29.36 0 53.153-23.782 53.153-53.113 0-29.335-23.793-53.12-53.153-53.12-29.353 0-53.153 23.785-53.153 53.12 0 29.33 23.8 53.114 53.153 53.114"/><path fill="#fff" d="M160.338 191.518c12.985.018 22.676-3.69 27.656-10.71.087-.122 1.555.286 2.792 1.17 1.286.92 2.235 2.08 2.77 1.612.526-.463-1.022-1.67-2.19-2.543-1.204-.9-2.682-1.28-2.613-1.398.563-.98 1.31-2.67 1.707-3.75.107-.29 5.414 1.78 5.605.9.194-.89-5.35-1.81-5.27-2.1.57-2.12.998-4.65.953-7.14-.058-3.22-3.436-10.59-7.5-14.56 0 0 1.925-5.71 1.92-9.17-.002-2.79-2.303-7.72-2.303-7.72-3.99-1.35-12.94 6.65-15.438 7.69 0 0-2.397-1.51-8.484-1.63-5.7.13-8.65 1.4-8.65 1.4-2.743-.67-13.108-8.17-17.41-7.39 0 0-1.07 5.6-1.04 8.38.032 3.29 1.904 8.23 1.904 8.23-4.85 5.4-5.822 8.78-5.822 14.75.063 2.31.356 4.46.866 6.44.06.23-6.08 1.42-5.61 2.59.53 1.28 6.13-1.06 6.2-.84.35 1.08.76 2.1 1.23 3.07.1.19-1.57.8-3.23 1.62-2.08 1.08-2.51 2.12-2.08 2.51.92.38 1.88-.64 3.06-1.35 1.52-.69 2.72-1.34 2.82-1.19 4.95 7.71 15.22 11.71 28.16 11.07"/><text x="138.77" y="597.286" fill="#3387a1" style="line-height:125%" font-size="40" font-family="sans-serif" letter-spacing="0" word-spacing="0" transform="translate(0 -415.22)"><tspan x="138.77" y="597.286" style="-inkscape-font-specification:HGMaruGothicMPRO" font-size="35" font-family="HGMaruGothicMPRO">Cr</tspan></text><path fill="none" d="M128.78 73.106c0-.066 4.675-7.783 10.39-17.15 5.714-9.37 12.014-19.697 14-22.952 1.986-3.256 3.74-5.88 3.9-5.832.334.102 4.345 6.617 18.13 29.455 8.918 14.772 9.854 16.45 9.23 16.546-.384.06-.81-.083-.948-.316-.14-.233-1.66-2.7-3.38-5.482l-3.13-5.058-19.78-.08-19.784-.083-3.602 5.513c-2.858 4.374-3.75 5.517-4.315 5.535-.39.01-.71-.032-.71-.097zm35.558-12.42c9.52-.183 10.958-.273 10.8-.68-.482-1.258-18.1-27.885-18.44-27.87-.128.007-.605.61-1.06 1.343-.455.73-4.486 7-8.958 13.92s-8.21 12.79-8.304 13.04c-.202.52 7.326.59 25.962.24z"/><path fill="none" d="M128.78 73.106c0-.066 4.675-7.783 10.39-17.15 5.714-9.37 12.014-19.697 14-22.952 1.986-3.256 3.74-5.88 3.9-5.832.334.102 4.345 6.617 18.13 29.455 8.918 14.772 9.854 16.45 9.23 16.546-.384.06-.81-.083-.948-.316-.14-.233-1.66-2.7-3.38-5.482l-3.13-5.058-19.78-.08-19.784-.083-3.602 5.513c-2.858 4.374-3.75 5.517-4.315 5.535-.39.01-.71-.032-.71-.097zm35.558-12.42c9.52-.183 10.958-.273 10.8-.68-.482-1.258-18.1-27.885-18.44-27.87-.128.007-.605.61-1.06 1.343-.455.73-4.486 7-8.958 13.92s-8.21 12.79-8.304 13.04c-.202.52 7.326.59 25.962.24z"/><path fill="none" d="M128.576 72.885c.48-.82 12.216-20.05 19.905-32.61l7.71-12.6c.77-1.26.8-1.303.97-1.077.77 1.08 14.9 24.305 24.19 39.77 3.37 5.6 4.1 6.883 3.96 6.962-.09.052-.53.08-.98.063l-.81-.032-3.35-5.51-3.36-5.51-8.54.07c-4.7.04-13.52.07-19.6.07H137.6l-3.655 5.48-3.657 5.48h-1.99l.31-.53zm46.603-12.417c.08-.085-1.1-1.917-8.43-13.095-7.98-12.16-9.43-14.338-9.74-14.62l-.28-.258-.9 1.32c-1.76 2.59-12.71 19.412-15.6 23.953-1.68 2.63-1.71 2.694-1.58 2.78.15.095 36.41.016 36.51-.08z"/><path fill="none" d="M129.767 72.588c1.018-1.9 27.905-45.69 28.095-45.758.272-.096-.403-1.16 7.97 12.567 10.114 16.58 20.254 33.42 20.254 33.637 0 .104-.392.187-.87.182-.79-.007-1.184-.53-4.193-5.56l-3.322-5.55-6.32.183c-3.48.1-12.34.18-19.68.18h-13.36l-3.57 5.37c-3.2 4.82-3.66 5.37-4.45 5.37s-.85-.07-.54-.64zm46.306-12.405c-.282-.462-9.886-15.157-14.773-22.604-1.854-2.83-3.45-5.14-3.545-5.14-.31 0-17.612 26.47-18.056 27.63-.18.45 1.51.5 18.21.5 14.64 0 18.35-.08 18.16-.4z"/><path fill="none" d="M124.828 73.984c.97-1.586 5.322-8.717 9.673-15.846 16.15-26.45 23.52-38.41 23.61-38.298.02.025 1.84 3.033 4.04 6.684 5.67 9.405 20.28 33.597 25.49 42.217 2.42 4.01 4.45 7.4 4.5 7.53.09.22-.24.26-2.56.35l-4.81.18-2.15.09-3.38-5.53-3.38-5.53h-14.64c-8.05 0-16.08.05-17.85.1l-3.22.11-3.62 5.43-3.62 5.43h-9.81l1.76-2.89zm9.982-5.888l3.6-5.374 8.028-.08 8.028-.082-8.107-.038-8.11-.037-2.71 4.07c-3.38 5.07-4.18 6.156-4.74 6.448-.56.288-.93.294-1.03.017-.11-.292 4.98-8.723 20.21-33.42 6.98-11.32 7.76-12.562 7.96-12.63.09-.028.61.677 1.17 1.568 3.13 5.006 21.38 35.096 24.93 41.11 1.72 2.922 1.94 3.352 1.68 3.446-.64.234-1.16-.045-1.85-.97-.37-.5-1.91-2.985-3.43-5.52l-2.76-4.61-1.66.11c-.91.06-5.5.16-10.2.222l-8.54.113h10.1c8.27 0 10.14.04 10.3.22.1.12 1.53 2.42 3.17 5.11 3.84 6.32 3.42 5.77 4.32 5.76 1.15-.01 1.28-.16.82-.98-.92-1.65-10.37-17.33-19.34-32.06-8.62-14.16-8.69-14.28-8.92-14.05-.29.31-28.49 46.42-28.67 46.88-.07.17.13.21 1.01.17l1.09-.05 3.6-5.38zm32.34-7.626c-3.727-.025-9.778-.025-13.448 0-3.67.024-.62.042 6.775.042 7.396 0 10.4-.017 6.673-.042zm7.636-2.365c-5.173-7.956-15.134-23.124-15.903-24.218-.515-.732-1.044-1.364-1.174-1.404-.14-.04-.06.127.18.383.36.396 7.11 10.6 15.47 23.407 1.43 2.19 2.63 3.954 2.66 3.918.03-.03-.53-.97-1.25-2.08zm-31.388-3.682c3.948-6.14 10.545-16.256 12.757-19.56.77-1.153 1.368-2.095 1.327-2.095-.326 0-17.808 26.793-17.808 27.29 0 .162-.132.362 3.724-5.635zm25.913 2.55l.45-.1-1.72-2.687c-1.98-3.086-4.89-7.564-8-12.3-1.23-1.867-2.23-3.244-2.32-3.186-.33.204-10.97 16.437-11.85 18.08l-.18.33 11.6-.017c6.38-.01 11.8-.064 12.05-.12z"/><path fill="#231f20" d="M159.47 318.975c29.357 0 53.153-23.784 53.153-53.12 0-29.334-23.796-53.114-53.153-53.114-29.36 0-53.153 23.78-53.153 53.12 0 29.34 23.793 53.12 53.153 53.12"/><g fill="#fff"><path fill-rule="evenodd" d="M159.906 222.347c-24.363 0-44.12 19.752-44.12 44.12 0 19.49 12.642 36.03 30.172 41.863 2.205.408 3.014-.957 3.014-2.123 0-1.052-.04-4.527-.06-8.214-12.273 2.67-14.863-5.205-14.863-5.205-2.01-5.1-4.9-6.456-4.9-6.456-4.01-2.738.3-2.68.3-2.68 4.43.31 6.76 4.546 6.76 4.546 3.93 6.744 10.32 4.794 12.84 3.666.39-2.85 1.54-4.798 2.8-5.9-9.8-1.115-20.1-4.898-20.1-21.803 0-4.81 1.72-8.75 4.54-11.84-.46-1.11-1.97-5.6.42-11.67 0 0 3.7-1.18 12.13 4.52 3.52-.97 7.29-1.47 11.04-1.48 3.75.02 7.52.51 11.05 1.49 8.42-5.71 12.12-4.52 12.12-4.52 2.4 6.08.89 10.57.43 11.68 2.83 3.09 4.54 7.03 4.54 11.84 0 16.95-10.32 20.68-20.15 21.77 1.58 1.37 2.99 4.06 2.99 8.17 0 5.91-.06 10.66-.06 12.11 0 1.18.79 2.55 3.03 2.12 17.52-5.84 30.15-22.37 30.15-41.86 0-24.37-19.76-44.12-44.12-44.12"/><path d="M132.497 285.692c-.097.22-.442.285-.756.134-.32-.144-.5-.443-.39-.662.1-.225.44-.288.76-.138.32.144.51.446.39.666m1.79 1.993c-.21.195-.62.104-.9-.204-.29-.3-.34-.71-.13-.91.22-.19.62-.1.91.21.29.31.35.72.13.92m1.74 2.54c-.27.19-.71.01-.98-.38s-.27-.86.01-1.05c.28-.19.71-.01.99.37.27.4.27.87 0 1.07m2.38 2.45c-.24.27-.75.2-1.13-.16-.38-.35-.49-.86-.25-1.12.25-.27.76-.19 1.14.17.39.36.5.86.25 1.13m3.29 1.43c-.1.35-.6.51-1.1.36-.5-.15-.82-.55-.72-.9.1-.35.6-.51 1.11-.35.5.15.83.56.72.91m3.61.27c.01.37-.41.67-.93.68-.53.01-.96-.28-.96-.64 0-.37.41-.67.94-.67.52-.01.95.29.95.65m3.36-.57c.07.357-.3.72-.82.82-.51.09-.98-.13-1.05-.48-.06-.363.31-.73.82-.822.52-.09.99.128 1.06.49"/></g><path fill="#4b4b4b" d="M53.21 318.974c29.356 0 53.152-23.783 53.152-53.118S82.566 212.74 53.21 212.74c-29.36 0-53.154 23.78-53.154 53.116 0 29.335 23.793 53.118 53.153 53.118"/><g fill="#6f6f6e"><path fill-rule="evenodd" d="M53.645 222.347c-24.363 0-44.12 19.752-44.12 44.118 0 19.493 12.642 36.03 30.172 41.864 2.205.4 3.014-.96 3.014-2.13 0-1.05-.04-4.53-.05-8.22-12.27 2.67-14.86-5.21-14.86-5.21-2-5.1-4.9-6.46-4.9-6.46-4-2.74.31-2.68.31-2.68 4.43.31 6.77 4.54 6.77 4.54 3.94 6.74 10.32 4.79 12.84 3.66.4-2.85 1.54-4.8 2.8-5.9-9.8-1.12-20.1-4.9-20.1-21.81 0-4.82 1.72-8.75 4.55-11.84-.46-1.12-1.97-5.6.43-11.68 0 0 3.71-1.19 12.14 4.52 3.52-.98 7.29-1.47 11.04-1.49 3.75.02 7.53.51 11.05 1.49 8.42-5.71 12.12-4.53 12.12-4.53 2.4 6.07.89 10.56.44 11.67 2.83 3.09 4.54 7.02 4.54 11.84 0 16.94-10.32 20.68-20.14 21.77 1.59 1.37 3 4.05 3 8.17 0 5.9-.05 10.65-.05 12.11 0 1.17.79 2.55 3.03 2.11 17.52-5.84 30.14-22.38 30.14-41.86 0-24.37-19.75-44.12-44.12-44.12"/><path d="M26.236 285.692c-.097.22-.442.284-.756.134-.32-.144-.5-.443-.396-.663.095-.225.44-.288.76-.137.32.144.503.446.392.666m1.787 1.993c-.21.195-.622.104-.9-.204-.29-.3-.343-.71-.13-.91.217-.19.616-.1.905.21.29.31.345.72.125.92m1.74 2.54c-.27.19-.713.01-.986-.38-.27-.39-.27-.86.006-1.05.274-.19.71-.02.986.37.27.4.27.87-.01 1.07m2.38 2.45c-.24.27-.76.2-1.14-.16-.39-.35-.5-.86-.25-1.12.24-.27.76-.19 1.14.17.38.36.5.86.24 1.13m3.29 1.43c-.11.35-.6.51-1.1.36-.5-.15-.83-.55-.73-.9.1-.35.6-.51 1.1-.35.5.15.82.55.72.91m3.61.26c.01.37-.41.67-.94.67-.53.02-.96-.28-.96-.64s.41-.66.94-.67c.52-.01.95.29.95.65m3.36-.57c.06.35-.3.72-.82.82-.51.093-.98-.126-1.05-.48-.06-.362.31-.726.82-.82.52-.09.99.12 1.05.483"/></g><path fill="#0096db" d="M159.47 425.204c29.357 0 53.153-23.776 53.153-53.115 0-29.34-23.796-53.12-53.153-53.12-29.353 0-53.153 23.78-53.153 53.11 0 29.34 23.8 53.11 53.153 53.11"/><text x="131.558" y="837.369" transform="matrix(1.02048 0 0 .97993 0 -414.567)" style="line-height:125%" font-size="54.231" font-family="sans-serif" letter-spacing="0" word-spacing="0"><tspan x="131.558" y="837.369" fill="#fff" style="-inkscape-font-specification:'Calligraph421 BT'" font-size="81.346" font-family="Calligraph421 BT">P</tspan></text><path fill="#4b4b4b" d="M53.21 425.204c29.356 0 53.152-23.776 53.152-53.114 0-29.332-23.796-53.115-53.153-53.115S.05 342.758.05 372.09c0 29.338 23.8 53.114 53.153 53.114"/><text x="131.558" y="837.369" fill="#6f6f6e" transform="matrix(1.02048 0 0 .97993 -106.26 -414.567)" style="line-height:125%" font-size="54.231" font-family="sans-serif" letter-spacing="0" word-spacing="0"><tspan x="131.558" y="837.369" style="-inkscape-font-specification:'Calligraph421 BT'" font-size="81.346" font-family="Calligraph421 BT">P</tspan></text><path fill="#1b3752" d="M159.47 531.44c29.357 0 53.153-23.782 53.153-53.118 0-29.335-23.796-53.118-53.153-53.118-29.36 0-53.153 23.783-53.153 53.118 0 29.336 23.793 53.12 53.153 53.12"/><path fill="#fff" d="M167.567 488.65c-1.57 0-2.68 1.225-2.68 2.73 0 1.342.94 2.403 2.344 2.403 1.62 0 2.73-1.18 2.73-2.686 0-1.384-.94-2.448-2.39-2.448zm18.715-14.162h-7.18l.098-.577c.536-3.08 1.755-5.55 4.27-5.55.73 0 1.375.12 1.873.35l.683-2.54c-.46-.27-1.296-.5-2.554-.5-1.602 0-3.206.58-4.387 1.66-1.64 1.51-2.558 3.9-3.01 6.48l-.147.7-2.145.02-.7 2.76 2.33-.01-2.922 16.54h3.17l2.9-16.54h4.55c-.15.99-.29 1.92-.49 2.99l-2.52 13.57h3.09l1.76-9.71c.73-3.98 3.63-7.06 5.92-7.06 2.33 0 2.75 1.62 2.75 3.2 0 .73-.07 1.43-.23 2.27l-2.13 11.3h3.05l1.83-9.9c.77-4.16 3.51-6.86 5.8-6.86 2.06 0 2.78 1.27 2.78 3.24 0 .77-.11 1.7-.26 2.43l-2.06 11.1h3.09l2.14-11.37c.2-1.04.31-2.31.31-3.16 0-3.51-2.37-4.9-4.5-4.9-2.75.04-5.11 1.47-6.75 4.16-.16-2.35-1.49-4.16-4.31-4.16-2.44 0-4.76 1.31-6.48 3.93h-.07l.48-3.7m-47.01 7.59c-1.48-.74-2.23-1.41-2.23-2.19 0-1.06.95-1.68 2.43-1.68 1.59 0 2.92.47 3.68.82l1.33-3.99c-.91-.51-2.62-.98-4.78-.98-4.77 0-8.15 2.62-8.15 6.62 0 2.39 1.78 4 3.91 5.09 1.71.87 2.31 1.53 2.31 2.48 0 .94-.79 1.72-2.35 1.72-1.78 0-3.75-.78-4.81-1.33l-1.33 3.96c1.1.82 3.3 1.45 5.65 1.48 4.93.04 8.53-2.34 8.53-6.73 0-2.66-2.12-4.19-4.17-5.25zm25.64-7.7h-6.74l-4.98 5.98c-.53.67-1.1 1.41-1.66 2.16h-.08l3.39-17.32h-5.42L144 493.83h5.42l1.13-6.15 2.05-2.04 3.468 8.18h6.11l-5.37-11.235 8.13-8.06zm-34.75.65c-1.55-.51-3.74-.93-5.98-.93-9.1 0-13.27 6.89-13.27 13.35 0 4 2.28 6.66 5.61 6.66 2.16 0 4.55-1.05 6.26-4.22h.08c-.07 1.37-.25 2.66-.29 3.79h5.07c-.08-2.39.3-6.14.76-8.61l1.78-10.03zm-6.81 7.92c-.87 4.7-2.95 6.88-4.58 6.88-1.52 0-2.16-1.55-2.16-3.43 0-3.56 2.44-8.11 5.96-8.11.57 0 1.2.17 1.62.25l-.83 4.43z"/><path fill="#4b4b4b" d="M53.21 531.44c29.356 0 53.152-23.783 53.152-53.118s-23.796-53.118-53.153-53.118c-29.36 0-53.16 23.783-53.16 53.118s23.8 53.118 53.16 53.118"/><path fill="#6f6f6e" d="M61.307 488.65c-1.572 0-2.682 1.225-2.682 2.73 0 1.342.94 2.403 2.345 2.403 1.616 0 2.727-1.18 2.727-2.687 0-1.384-.94-2.447-2.39-2.447zm18.713-14.163h-7.178l.097-.577c.53-3.085 1.75-5.552 4.27-5.552.73 0 1.37.118 1.87.348l.68-2.545c-.46-.27-1.3-.5-2.56-.5-1.6 0-3.21.58-4.39 1.66-1.64 1.51-2.56 3.9-3.01 6.48l-.15.69-2.15.02-.7 2.76 2.33-.01-2.92 16.54h3.17l2.89-16.54h4.55c-.15 1-.3 1.92-.5 2.99l-2.52 13.57h3.1l1.75-9.71c.72-3.97 3.62-7.06 5.91-7.06 2.32 0 2.75 1.63 2.75 3.2 0 .74-.08 1.43-.23 2.28l-2.13 11.29H88l1.827-9.9c.77-4.16 3.52-6.86 5.8-6.86 2.06 0 2.79 1.27 2.79 3.24 0 .77-.11 1.7-.26 2.43l-2.06 11.1h3.09l2.14-11.37c.196-1.04.31-2.31.31-3.16 0-3.51-2.37-4.9-4.5-4.9-2.75.04-5.118 1.47-6.75 4.17-.16-2.35-1.49-4.16-4.316-4.16-2.44 0-4.77 1.31-6.49 3.93h-.07l.48-3.71m-47 7.57c-1.48-.74-2.23-1.4-2.23-2.19 0-1.06.95-1.68 2.43-1.68 1.59 0 2.92.48 3.68.83l1.33-3.99c-.92-.51-2.62-.98-4.78-.98-4.78 0-8.15 2.63-8.15 6.62 0 2.39 1.78 3.99 3.9 5.08 1.71.87 2.31 1.53 2.31 2.48 0 .94-.8 1.72-2.36 1.72-1.79 0-3.76-.78-4.82-1.33l-1.33 3.96c1.1.82 3.3 1.45 5.65 1.48 4.93.05 8.53-2.34 8.53-6.73 0-2.66-2.12-4.19-4.17-5.24zm25.64-7.7h-6.75l-4.98 5.98c-.53.67-1.1 1.41-1.66 2.16h-.08l3.39-17.33h-5.42l-5.43 28.48h5.42l1.14-6.15 2.05-2.04 3.47 8.18h6.11l-5.38-11.23 8.13-8.05zm-34.75.65c-1.55-.51-3.74-.93-5.98-.93-9.1 0-13.27 6.89-13.27 13.35 0 3.99 2.28 6.66 5.61 6.66 2.16 0 4.55-1.06 6.26-4.23h.08c-.08 1.37-.25 2.66-.29 3.8h5.07c-.07-2.39.3-6.15.76-8.62l1.78-10.04zm-6.81 7.92c-.87 4.7-2.95 6.88-4.58 6.88-1.52 0-2.16-1.55-2.16-3.43 0-3.56 2.44-8.12 5.96-8.12.57 0 1.21.17 1.62.25l-.83 4.43z"/><path fill="#e8476d" d="M159.47 637.67c29.357 0 53.153-23.783 53.153-53.118 0-29.332-23.796-53.115-53.153-53.115-29.36 0-53.153 23.783-53.153 53.115 0 29.335 23.793 53.118 53.153 53.118"/><path fill="#fff" d="M121.5 558.795c-.553 0-1 .447-1 1v52c0 .553.447 1 1 1h76c.553 0 1-.447 1-1v-52c0-.553-.447-1-1-1h-76zm68.816 6L159.5 587.39l-30.816-22.595h61.632zm2.184 42h-66v-36.16l29.452 21.593 3.548 2.6 3.548-2.6 29.452-21.594v36.16z"/><path fill="#4b4b4b" d="M53.21 637.67c29.356 0 53.152-23.783 53.152-53.118 0-29.332-23.796-53.115-53.153-53.115-29.36 0-53.16 23.783-53.16 53.115 0 29.335 23.79 53.118 53.15 53.118"/><path fill="#6f6f6e" d="M15.24 558.795c-.554 0-1 .447-1 1v52c0 .553.446 1 1 1h76c.552 0 1-.447 1-1v-52c0-.553-.448-1-1-1h-76zm68.815 6L53.24 587.39l-30.817-22.595h61.632zm2.184 42h-66v-36.16l29.45 21.593 3.55 2.6 3.54-2.6 29.45-21.594v36.16z"/></svg>