<svg xmlns="http://www.w3.org/2000/svg" width="60" height="210" viewBox="0 0 212.59843 744.09448"><path d="M53.15 106.3c29.355 0 53.15-23.793 53.15-53.15C106.3 23.8 82.504 0 53.15 0 23.8 0 0 23.8 0 53.15c0 29.357 23.8 53.15 53.15 53.15" fill="#4b4b4b"/><path d="M22.41 69.295C45.982 30.66 52.586 19.925 52.68 20.08l17.193 28.476L86.96 76.85l-1.295.103c-.71.056-2.93.137-4.932.18l-3.64.078-3.38-5.51L70 66.18l-35.256.21-3.624 5.428-3.625 5.428H17.56l4.85-7.95zm17.796-11.85L64.41 57.3 52.364 38.746z" fill="#6f6f6e"/><path d="M23.99 73.364c.197-.37 10.866-17.866 21.808-35.763 3.51-5.73 6.463-10.52 6.566-10.63.215-.23-.45-1.28 7.964 12.54 7.55 12.4 17.24 28.43 19.118 31.62l1.488 2.53-.9.05c-.595.03-.968-.02-1.093-.16-.1-.11-1.63-2.57-3.39-5.46-1.76-2.89-3.26-5.29-3.33-5.34-.07-.04-8.93-.03-19.69.03l-19.56.11-3.62 5.43-3.62 5.43h-.95c-.94 0-.95 0-.76-.35zm30.793-12.448c15.058 0 15.89-.014 15.82-.276-.12-.456-17.42-26.83-18.036-27.498l-.323-.35-.285.362c-1.01 1.272-17.87 27.322-17.87 27.596 0 .265.54.31 2.67.24 1.16-.04 9.27-.072 18.01-.072z" fill="none"/><path d="M159.45 106.3c29.354 0 53.148-23.793 53.148-53.15 0-29.35-23.794-53.15-53.15-53.15-29.35 0-53.15 23.8-53.15 53.15 0 29.357 23.8 53.15 53.15 53.15" fill="#4a484c"/><path d="M128.67 69.296c23.573-38.636 30.177-49.372 30.273-49.215l17.193 28.48 17.084 28.29-1.295.11c-.71.06-2.93.14-4.932.18l-3.64.08-3.38-5.51-3.712-5.51-35.25.21-3.62 5.43-3.62 5.43h-9.93l4.85-7.95zm17.796-11.852l24.204-.144-12.045-18.554z" fill="#fff"/><path d="M130.25 73.364c.197-.37 10.866-17.866 21.81-35.763 3.507-5.73 6.462-10.52 6.565-10.63.215-.23-.45-1.28 7.964 12.54 7.54 12.4 17.24 28.43 19.11 31.62l1.49 2.53-.9.05c-.6.03-.97-.02-1.09-.16-.11-.11-1.63-2.57-3.4-5.46-1.76-2.89-3.26-5.29-3.33-5.33-.07-.04-8.94-.03-19.7.03l-19.57.11-3.63 5.43-3.63 5.43H131c-.94 0-.95 0-.764-.35zm30.793-12.448c15.058 0 15.89-.014 15.82-.276-.12-.456-17.418-26.83-18.036-27.498l-.323-.35-.284.362c-1.002 1.272-17.866 27.322-17.866 27.597 0 .27.54.31 2.675.24 1.16-.04 9.27-.07 18.01-.07z" fill="none"/><path d="M53.15 212.598c29.358 0 53.15-23.798 53.15-53.147 0-29.35-23.792-53.15-53.15-53.15C23.798 106.3 0 130.1 0 159.45c0 29.35 23.798 53.15 53.15 53.15" fill="#4b4b4b"/><path d="M54.02 191.642c12.986.02 22.677-3.69 27.656-10.71.088-.12 1.556.287 2.793 1.17 1.28.92 2.23 2.08 2.76 1.612.52-.462-1.02-1.67-2.19-2.543-1.21-.89-2.68-1.27-2.61-1.39.56-.97 1.31-2.66 1.7-3.75.1-.29 5.41 1.78 5.6.91.19-.88-5.35-1.81-5.27-2.1.57-2.12 1-4.64.95-7.13-.06-3.22-3.44-10.58-7.5-14.56 0 0 1.92-5.71 1.92-9.17-.01-2.78-2.31-7.72-2.31-7.72-3.99-1.34-12.94 6.66-15.44 7.7 0 0-2.4-1.51-8.49-1.63-5.7.13-8.65 1.4-8.65 1.4-2.75-.67-13.11-8.16-17.41-7.38 0 0-1.07 5.6-1.04 8.39.03 3.29 1.9 8.23 1.9 8.23-4.85 5.4-5.82 8.78-5.82 14.76.06 2.31.35 4.46.86 6.45.06.23-6.09 1.43-5.61 2.59.52 1.29 6.12-1.06 6.2-.83.34 1.08.75 2.11 1.23 3.08.09.19-1.58.81-3.23 1.63-2.08 1.08-2.52 2.13-2.08 2.51.92.39 1.88-.64 3.06-1.34 1.51-.69 2.72-1.34 2.81-1.19 4.94 7.72 15.21 11.72 28.16 11.08" fill="#6f6f6e"/><path d="M55.968 159.22q1.778 1.778 2.188 3.692.273 1.368-.957 1.778-1.24.273-1.78-.957-.55-1.914-1.92-3.282-2.6-2.59-6.97-2.59-4.1 0-7.52 3.42-2.87 2.87-2.87 8.34 0 5.61 2.87 8.48 3.42 3.42 7.52 3.42 4.24 0 7.24-3 1.5-1.5 2.18-3.96.27-1.23 1.78-.82 1.23.55.82 1.78-.96 2.87-2.74 4.65-3.56 3.56-9.16 3.56-5.88 0-9.57-3.69-3.97-3.96-3.97-10.39 0-6.15 3.83-9.98 3.96-3.97 9.57-3.97 6.01 0 9.43 3.56zm5.88 6.7q0-1.367 1.23-1.367t1.23 1.367v3.418q.957-2.05 1.914-3.008 1.778-1.777 6.153-1.777 1.23 0 1.23 1.094 0 1.093-1.23 1.093H70.87q-2.597 0-4.1 1.504-1.642 1.64-2.462 4.24v9.842q0 1.368-1.23 1.368t-1.23-1.368V165.92z" style="-inkscape-font-specification:HGMaruGothicMPRO" font-size="35" font-family="HGMaruGothicMPRO" letter-spacing="0" word-spacing="0" fill="#4b4b4b"/><path d="M159.45 212.598c29.357 0 53.148-23.798 53.148-53.147 0-29.35-23.79-53.15-53.15-53.15-29.35 0-53.15 23.8-53.15 53.15 0 29.35 23.8 53.15 53.15 53.15" fill="#3387a1"/><path d="M160.32 191.643c12.986.018 22.676-3.69 27.656-10.71.087-.122 1.556.286 2.792 1.17 1.287.92 2.235 2.08 2.77 1.61.526-.46-1.02-1.668-2.19-2.54-1.204-.9-2.682-1.28-2.613-1.4.563-.972 1.31-2.664 1.707-3.747.107-.29 5.414 1.782 5.605.904.194-.888-5.35-1.81-5.27-2.102.57-2.12.998-4.646.953-7.133-.058-3.218-3.436-10.585-7.5-14.56 0 0 1.925-5.71 1.92-9.17-.002-2.786-2.303-7.718-2.303-7.718-3.99-1.347-12.94 6.655-15.438 7.695 0 0-2.4-1.512-8.49-1.632-5.7.13-8.65 1.4-8.65 1.4-2.75-.67-13.11-8.168-17.41-7.386 0 0-1.07 5.602-1.04 8.387.03 3.29 1.9 8.23 1.9 8.23-4.85 5.41-5.83 8.78-5.83 14.76.06 2.31.35 4.46.86 6.45.06.24-6.09 1.43-5.61 2.59.52 1.29 6.12-1.06 6.19-.83.34 1.08.75 2.11 1.23 3.08.09.19-1.58.81-3.23 1.63-2.08 1.08-2.52 2.13-2.08 2.52.92.39 1.88-.64 3.06-1.34 1.51-.69 2.72-1.34 2.81-1.19 4.94 7.72 15.21 11.72 28.16 11.08" fill="#fff"/><path d="M162.268 159.22q1.777 1.778 2.187 3.692.273 1.368-.957 1.778-1.23.273-1.777-.957-.54-1.914-1.91-3.28-2.6-2.6-6.97-2.6-4.1 0-7.52 3.42-2.87 2.87-2.87 8.34 0 5.604 2.87 8.475 3.42 3.418 7.52 3.418 4.24 0 7.25-3.008 1.51-1.503 2.19-3.964.27-1.23 1.78-.82 1.23.546.82 1.777-.95 2.88-2.73 4.65-3.55 3.56-9.16 3.56-5.88 0-9.57-3.69-3.96-3.96-3.96-10.39 0-6.15 3.83-9.98 3.97-3.96 9.57-3.96 6.02 0 9.44 3.56zm5.878 6.7q0-1.367 1.23-1.367t1.23 1.367v3.418q.958-2.05 1.915-3.008 1.78-1.777 6.16-1.777 1.23 0 1.23 1.094t-1.23 1.094h-1.5q-2.59 0-4.1 1.51-1.64 1.64-2.46 4.24v9.85q0 1.37-1.23 1.37t-1.23-1.36v-16.41z" style="-inkscape-font-specification:HGMaruGothicMPRO" font-size="35" font-family="HGMaruGothicMPRO" letter-spacing="0" word-spacing="0" fill="#3387a1"/><path d="M128.723 73.23c0-.065 4.675-7.782 10.39-17.15l14-22.95c1.987-3.257 3.742-5.88 3.9-5.833.335.102 4.345 6.617 18.13 29.455 8.918 14.772 9.854 16.45 9.23 16.546-.383.06-.81-.083-.948-.316-.138-.233-1.66-2.7-3.38-5.482l-3.128-5.058-19.783-.08-19.782-.083-3.603 5.51c-2.86 4.37-3.75 5.51-4.32 5.53-.39.01-.71-.03-.71-.1zm35.558-12.42c9.52-.182 10.96-.272 10.81-.678-.48-1.26-18.1-27.886-18.44-27.87-.12.006-.6.61-1.06 1.342-.45.734-4.48 7-8.96 13.925-4.47 6.92-8.21 12.79-8.3 13.04-.2.52 7.33.59 25.96.24z" fill="none"/><path d="M128.723 73.23c0-.065 4.675-7.782 10.39-17.15l14-22.95c1.987-3.257 3.742-5.88 3.9-5.833.335.102 4.345 6.617 18.13 29.455 8.918 14.772 9.854 16.45 9.23 16.546-.383.06-.81-.083-.948-.316-.138-.233-1.66-2.7-3.38-5.482l-3.128-5.058-19.783-.08-19.782-.083-3.603 5.51c-2.86 4.37-3.75 5.51-4.32 5.53-.39.01-.71-.03-.71-.1zm35.558-12.42c9.52-.182 10.96-.272 10.81-.678-.48-1.26-18.1-27.886-18.44-27.87-.12.006-.6.61-1.06 1.342-.45.734-4.48 7-8.96 13.925-4.47 6.92-8.21 12.79-8.3 13.04-.2.52 7.33.59 25.96.24z" fill="none"/><path d="M128.52 73.01c.48-.82 12.216-20.05 19.904-32.61 3.8-6.21 7.27-11.88 7.706-12.6.763-1.26.802-1.303.963-1.077.77 1.08 14.897 24.305 24.187 39.77 3.366 5.6 4.094 6.883 3.954 6.962-.095.052-.537.08-.983.063l-.81-.032-3.35-5.518-3.35-5.517-8.55.07c-4.7.04-13.52.07-19.6.07h-11.06l-3.65 5.48-3.65 5.48h-2l.31-.53zm46.603-12.417c.085-.085-1.094-1.917-8.43-13.095-7.977-12.16-9.43-14.338-9.737-14.62l-.282-.258-.893 1.32c-1.75 2.59-12.7 19.412-15.59 23.953-1.67 2.63-1.71 2.694-1.57 2.78.16.095 36.42.016 36.52-.08z" fill="none"/><path d="M129.71 72.713c1.018-1.9 27.905-45.69 28.096-45.758.27-.096-.403-1.16 7.97 12.567 10.114 16.58 20.253 33.42 20.253 33.637 0 .1-.4.18-.87.18-.79-.01-1.19-.53-4.2-5.56l-3.33-5.55-6.33.18c-3.48.1-12.34.18-19.69.18h-13.35l-3.57 5.37c-3.21 4.82-3.67 5.37-4.46 5.37s-.85-.07-.54-.64zm46.307-12.405c-.282-.462-9.887-15.157-14.774-22.604-1.854-2.825-3.45-5.137-3.544-5.137-.32 0-17.62 26.477-18.06 27.634-.18.46 1.52.51 18.21.51 14.64 0 18.35-.08 18.16-.39z" fill="none"/><path d="M124.77 74.11c.97-1.587 5.323-8.718 9.674-15.847 16.144-26.45 23.514-38.41 23.603-38.298.02.025 1.836 3.033 4.038 6.684 5.67 9.4 20.272 33.59 25.483 42.21 2.422 4 4.446 7.39 4.498 7.53.083.21-.24.26-2.565.34-1.46.05-3.63.13-4.81.18l-2.16.08-3.38-5.54-3.38-5.54-14.63-.01c-8.05-.01-16.08.04-17.85.1l-3.22.1-3.62 5.42-3.62 5.43h-9.8l1.76-2.89zm9.984-5.89l3.6-5.373 8.028-.08 8.027-.082-8.11-.038-8.11-.037-2.71 4.07c-3.38 5.07-4.18 6.156-4.74 6.448-.56.288-.93.294-1.03.017-.12-.292 4.98-8.723 20.21-33.42 6.98-11.32 7.76-12.562 7.96-12.63.09-.028.61.677 1.17 1.568 3.12 5.006 21.38 35.096 24.93 41.11 1.73 2.922 1.94 3.352 1.68 3.446-.63.23-1.16-.05-1.84-.98-.37-.5-1.91-2.99-3.43-5.52l-2.76-4.61-1.66.11c-.92.06-5.51.16-10.21.22l-8.55.11h10.11c8.27.01 10.14.05 10.3.22.11.12 1.53 2.42 3.17 5.11 3.84 6.32 3.42 5.77 4.32 5.76 1.15-.01 1.28-.16.83-.98-.92-1.64-10.38-17.33-19.34-32.06-8.62-14.16-8.69-14.28-8.91-14.05-.29.3-28.49 46.42-28.67 46.87-.07.17.13.21 1 .17l1.09-.05 3.6-5.37zm32.34-7.625c-3.727-.025-9.778-.025-13.448 0-3.67.024-.62.042 6.775.042 7.4 0 10.4-.017 6.68-.042zm7.636-2.365c-5.173-7.956-15.134-23.124-15.904-24.218-.515-.732-1.043-1.364-1.174-1.404-.133-.04-.05.127.185.383.368.4 7.114 10.6 15.476 23.41 1.43 2.19 2.63 3.96 2.666 3.92.03-.03-.53-.97-1.25-2.08zm-31.39-3.682c3.95-6.14 10.547-16.255 12.758-19.56.77-1.153 1.368-2.095 1.327-2.095-.325 0-17.808 26.793-17.808 27.29 0 .162-.132.362 3.724-5.635zm25.914 2.55l.45-.1-1.726-2.687c-1.98-3.08-4.897-7.56-8.007-12.29-1.22-1.87-2.23-3.24-2.32-3.18-.33.21-10.97 16.44-11.85 18.08l-.17.33 11.6-.01c6.38-.01 11.8-.06 12.04-.12z" fill="none"/><path d="M159.45 318.898c29.354 0 53.148-23.798 53.148-53.152 0-29.353-23.794-53.148-53.15-53.148-29.357 0-53.15 23.795-53.15 53.148 0 29.354 23.793 53.152 53.15 53.152" fill="#231f20"/><g fill="#fff"><path d="M159.884 222.21c-24.36 0-44.115 19.764-44.115 44.146 0 19.505 12.64 36.053 30.16 41.89 2.2.41 3.01-.957 3.01-2.124 0-1.052-.04-4.53-.06-8.22-12.28 2.672-14.87-5.207-14.87-5.207-2.01-5.103-4.9-6.46-4.9-6.46-4-2.74.3-2.683.3-2.683 4.43.31 6.76 4.55 6.76 4.55 3.93 6.748 10.32 4.797 12.84 3.67.39-2.855 1.54-4.803 2.8-5.904-9.8-1.117-20.1-4.902-20.1-21.818 0-4.82 1.72-8.757 4.54-11.85-.46-1.112-1.97-5.6.43-11.682 0 0 3.7-1.186 12.13 4.525 3.52-.978 7.29-1.468 11.04-1.485 3.75.017 7.52.507 11.05 1.485 8.42-5.71 12.12-4.525 12.12-4.525 2.4 6.08.89 10.57.43 11.683 2.83 3.1 4.54 7.03 4.54 11.85 0 16.96-10.32 20.69-20.15 21.79 1.58 1.37 2.99 4.06 2.99 8.18 0 5.91-.05 10.66-.05 12.12 0 1.18.79 2.55 3.03 2.12 17.52-5.85 30.15-22.39 30.15-41.89 0-24.38-19.76-44.14-44.12-44.14" fill-rule="evenodd"/><path d="M132.478 285.594c-.098.22-.442.285-.757.135-.32-.15-.49-.45-.39-.67.1-.23.44-.29.76-.14.32.14.51.44.4.66m1.79 1.99c-.21.19-.62.1-.9-.21-.29-.31-.34-.72-.13-.92.22-.2.62-.11.91.2.29.31.34.72.12.92m1.74 2.54c-.27.19-.71.01-.98-.38-.27-.4-.27-.87.01-1.06.28-.19.71-.02.99.37.27.4.27.87 0 1.07m2.38 2.45c-.24.27-.76.19-1.13-.17-.38-.36-.49-.86-.25-1.13.25-.27.76-.19 1.14.17.39.36.5.86.25 1.13m3.28 1.43c-.11.34-.6.5-1.1.35-.5-.15-.82-.56-.72-.91.1-.35.6-.51 1.1-.36.5.15.83.55.73.9m3.61.26c.02.36-.41.66-.93.67-.53.01-.96-.28-.96-.64 0-.37.41-.67.94-.67.52-.01.95.28.95.64m3.36-.58c.07.36-.3.72-.82.82-.51.09-.98-.13-1.05-.48-.06-.37.31-.73.82-.82.52-.09.99.12 1.06.48"/></g><path d="M53.15 318.898c29.354 0 53.15-23.798 53.15-53.152 0-29.353-23.796-53.148-53.15-53.148-29.36 0-53.15 23.795-53.15 53.148 0 29.354 23.79 53.152 53.15 53.152" fill="#4b4b4b"/><g fill="#6f6f6e"><path d="M53.585 222.21c-24.36 0-44.116 19.764-44.116 44.146 0 19.505 12.64 36.053 30.16 41.89 2.2.41 3.01-.957 3.01-2.124 0-1.052-.04-4.53-.06-8.22-12.28 2.672-14.87-5.207-14.87-5.207-2.01-5.103-4.9-6.46-4.9-6.46-4-2.74.3-2.683.3-2.683 4.43.31 6.76 4.55 6.76 4.55 3.93 6.748 10.32 4.797 12.83 3.67.39-2.855 1.54-4.803 2.8-5.904-9.8-1.117-20.1-4.902-20.1-21.818 0-4.82 1.72-8.757 4.55-11.85-.46-1.112-1.97-5.6.42-11.682 0 0 3.7-1.186 12.13 4.525 3.52-.978 7.29-1.468 11.04-1.485 3.75.017 7.52.507 11.05 1.485 8.42-5.71 12.12-4.525 12.12-4.525 2.4 6.08.89 10.57.43 11.683 2.82 3.1 4.54 7.03 4.54 11.85 0 16.96-10.32 20.69-20.15 21.79 1.58 1.37 2.99 4.06 2.99 8.18 0 5.91-.05 10.66-.05 12.12 0 1.18.79 2.55 3.03 2.12 17.53-5.86 30.16-22.4 30.16-41.9 0-24.38-19.75-44.14-44.12-44.14" fill-rule="evenodd"/><path d="M26.178 285.594c-.097.22-.442.285-.756.135-.32-.15-.5-.45-.396-.67.095-.23.44-.29.76-.14.32.14.503.44.392.66m1.787 1.99c-.21.19-.62.1-.9-.21-.29-.31-.343-.72-.13-.92.217-.2.616-.11.905.2.29.31.345.72.125.92m1.74 2.54c-.27.19-.713.01-.986-.38-.27-.4-.27-.87 0-1.06.27-.19.71-.02.98.37.27.4.27.87-.01 1.07m2.38 2.45c-.24.27-.76.19-1.14-.17-.39-.36-.49-.86-.25-1.13.24-.27.76-.19 1.14.17.38.36.5.86.24 1.13m3.3 1.43c-.11.34-.6.5-1.1.35-.5-.15-.83-.56-.73-.91.1-.35.6-.51 1.1-.36.5.15.83.55.72.9m3.61.26c.01.36-.41.66-.94.67-.53.02-.95-.28-.96-.64 0-.36.41-.66.94-.67.53-.01.96.28.96.64m3.36-.57c.07.36-.3.72-.82.82-.51.1-.99-.12-1.05-.48-.06-.36.31-.73.82-.82.52-.09.99.12 1.05.48"/></g><path d="M159.41 425.197c29.355 0 53.15-23.792 53.15-53.15 0-29.35-23.795-53.15-53.15-53.15-29.35 0-53.15 23.8-53.15 53.15 0 29.358 23.8 53.15 53.15 53.15" fill="#0096db"/><path d="M162.566 402.627q0 1.09-2.635 1.48-1.78.272-2.99.506-6.32 1.285-11.87 3.427-1.09.39-1.21.39-.32 0-.56-.234-.2-.234-.2-.545 0-.35.98-1.32.98-.93 1.18-1.91.49-2.14.69-10.82.24-8.68.24-25.51v-5.02q0-6.38-.32-8.06-.28-1.67-1.09-1.67-1.7 0-4.25 1.09-2.56 1.09-3.04 1.09-.29 0-.49-.27-.2-.31-.2-.7 0-.93 2.96-2.1l.69-.27q6.12-2.53 11.35-3.7 5.23-1.17 10.17-1.17 9.89 0 15.48 4.4 5.59 4.36 5.59 12.03 0 8.96-6.81 14.57-6.81 5.61-17.83 5.61-1.74 0-2.31-.27-.52-.27-.52-1.25 0-.89.24-1.09.24-.19 1.1-.19h1.99q7.58 0 11.79-4.13 4.26-4.13 4.26-11.49 0-6.85-3.73-10.9-3.72-4.09-9.97-4.09-3.2 0-5.35.86-2.14.82-2.39 2.14-.36 1.6-.61 12.43-.2 10.79-.2 27.15v2.57q0 4.79.61 5.92.65 1.09 2.72 1.09.93 0 3.04-.51 2.15-.54 3.08-.54.28.04.36.28.13.23.13.78z" style="-inkscape-font-specification:'Calligraph421 BT'" font-size="81.346" font-family="Calligraph421 BT" fill="#fff" letter-spacing="0" word-spacing="0"/><path d="M53.15 425.197c29.354 0 53.15-23.792 53.15-53.15 0-29.35-23.796-53.15-53.15-53.15-29.352 0-53.15 23.8-53.15 53.15 0 29.358 23.798 53.15 53.15 53.15" fill="#4b4b4b"/><path d="M56.305 402.627q0 1.09-2.635 1.48-1.783.272-3 .506-6.322 1.285-11.874 3.427-1.095.39-1.216.39-.325 0-.568-.234-.202-.234-.202-.545 0-.35.972-1.32.973-.93 1.176-1.91.486-2.14.69-10.82.242-8.68.242-25.51v-5.02q0-6.38-.324-8.06-.284-1.67-1.095-1.67-1.7 0-4.25 1.09t-3.04 1.09q-.28 0-.48-.27-.2-.31-.2-.7 0-.93 2.96-2.1l.69-.27q6.12-2.53 11.35-3.7 5.23-1.17 10.18-1.17 9.89 0 15.48 4.4 5.59 4.37 5.59 12.04 0 8.96-6.81 14.57-6.8 5.61-17.83 5.61-1.74 0-2.31-.27-.53-.27-.53-1.24 0-.89.25-1.09.24-.19 1.09-.19h1.99q7.58 0 11.8-4.13 4.26-4.13 4.26-11.49 0-6.85-3.73-10.9-3.73-4.09-9.97-4.09-3.2 0-5.35.86-2.15.82-2.39 2.14-.36 1.6-.61 12.42-.2 10.79-.2 27.15v2.57q0 4.79.61 5.92.65 1.09 2.72 1.09.93 0 3.04-.51 2.15-.54 3.08-.54.29.04.37.28.12.23.12.78z" style="-inkscape-font-specification:'Calligraph421 BT'" font-size="81.346" font-family="Calligraph421 BT" letter-spacing="0" word-spacing="0" fill="#6f6f6e"/><path d="M159.45 531.496c29.354 0 53.148-23.797 53.148-53.15 0-29.352-23.794-53.15-53.15-53.15-29.357 0-53.15 23.798-53.15 53.15 0 29.353 23.793 53.15 53.15 53.15" fill="#1b3752"/><path d="M167.546 488.68c-1.572 0-2.682 1.226-2.682 2.73 0 1.345.94 2.406 2.346 2.406 1.615 0 2.726-1.18 2.726-2.688 0-1.384-.94-2.448-2.39-2.448zm18.714-14.17h-7.18l.097-.578c.537-3.087 1.755-5.556 4.272-5.556.72 0 1.37.12 1.87.348l.68-2.546c-.46-.27-1.3-.5-2.56-.5-1.61 0-3.21.578-4.39 1.658-1.64 1.505-2.56 3.898-3.01 6.48l-.15.694-2.15.013-.7 2.758 2.33-.01-2.92 16.55h3.16l2.9-16.55h4.54c-.15 1-.3 1.92-.5 2.99l-2.52 13.58h3.09l1.75-9.71c.72-3.97 3.62-7.06 5.91-7.06 2.32 0 2.74 1.63 2.74 3.2 0 .74-.08 1.43-.23 2.28l-2.14 11.3h3.05l1.82-9.9c.77-4.17 3.51-6.87 5.8-6.87 2.06 0 2.78 1.28 2.78 3.25 0 .77-.11 1.7-.26 2.43l-2.06 11.11h3.09l2.14-11.37c.19-1.04.3-2.31.3-3.16 0-3.51-2.37-4.9-4.5-4.9-2.75.04-5.11 1.47-6.75 4.17-.16-2.35-1.49-4.16-4.31-4.16-2.44 0-4.77 1.31-6.48 3.93h-.08l.47-3.7m-47.01 7.6c-1.48-.74-2.24-1.41-2.24-2.19 0-1.06.94-1.68 2.43-1.68 1.59 0 2.91.48 3.67.83l1.33-3.99c-.91-.51-2.618-.98-4.78-.98-4.77 0-8.15 2.62-8.15 6.62 0 2.39 1.78 4 3.904 5.09 1.706.87 2.31 1.53 2.31 2.47 0 .94-.796 1.72-2.35 1.72-1.783 0-3.754-.78-4.814-1.33l-1.33 3.96c1.1.82 3.3 1.45 5.65 1.49 4.93.04 8.53-2.34 8.53-6.73 0-2.66-2.125-4.19-4.17-5.25zm25.64-7.71h-6.74l-4.98 5.99c-.53.67-1.1 1.41-1.67 2.16h-.08l3.39-17.33h-5.42l-5.44 28.5h5.42l1.13-6.14 2.05-2.04 3.47 8.188h6.11l-5.37-11.244 8.126-8.07zm-34.76.65c-1.55-.51-3.74-.93-5.98-.93-9.1 0-13.27 6.9-13.27 13.36 0 4 2.28 6.66 5.61 6.66 2.16 0 4.55-1.06 6.26-4.23h.072c-.076 1.37-.25 2.66-.29 3.8h5.07c-.08-2.39.3-6.15.755-8.62l1.78-10.04zm-6.817 7.92c-.87 4.7-2.96 6.88-4.59 6.88-1.52 0-2.16-1.55-2.16-3.43 0-3.57 2.43-8.12 5.96-8.12.562 0 1.2.17 1.62.25l-.84 4.43z" fill="#fff"/><path d="M53.15 531.496c29.354 0 53.15-23.797 53.15-53.15 0-29.352-23.796-53.15-53.15-53.15-29.36 0-53.15 23.798-53.15 53.15 0 29.353 23.79 53.15 53.15 53.15" fill="#4b4b4b"/><path d="M61.247 488.68c-1.572 0-2.682 1.226-2.682 2.73 0 1.345.94 2.406 2.345 2.406 1.616 0 2.726-1.18 2.726-2.688 0-1.384-.938-2.45-2.39-2.45zm18.713-14.17h-7.18l.098-.578c.537-3.087 1.755-5.556 4.27-5.556.73 0 1.375.12 1.873.348l.69-2.546c-.46-.27-1.29-.502-2.55-.502-1.6 0-3.2.58-4.38 1.66-1.64 1.505-2.56 3.898-3.01 6.48l-.14.694-2.14.013-.7 2.758 2.33-.01-2.92 16.55h3.17l2.9-16.55h4.55c-.14 1-.29 1.92-.49 2.99l-2.52 13.58h3.09l1.76-9.71c.72-3.97 3.63-7.06 5.91-7.06 2.33 0 2.75 1.63 2.75 3.2 0 .74-.08 1.43-.23 2.28l-2.13 11.3H88l1.825-9.91c.764-4.17 3.51-6.87 5.8-6.87 2.056 0 2.78 1.27 2.78 3.24 0 .77-.11 1.7-.26 2.43l-2.07 11.11h3.087l2.14-11.37c.19-1.04.304-2.31.304-3.16 0-3.51-2.362-4.9-4.5-4.9-2.742.04-5.11 1.47-6.75 4.17-.152-2.35-1.483-4.16-4.31-4.16-2.44 0-4.763 1.31-6.48 3.94h-.076l.48-3.7m-47.01 7.6c-1.48-.74-2.237-1.41-2.237-2.19 0-1.06.945-1.69 2.427-1.69 1.59 0 2.915.48 3.673.82l1.33-3.99c-.91-.51-2.617-.98-4.78-.98-4.775 0-8.15 2.63-8.15 6.62 0 2.4 1.78 4 3.907 5.09 1.71.87 2.315 1.53 2.315 2.48 0 .94-.797 1.72-2.35 1.72-1.784 0-3.755-.78-4.814-1.33l-1.33 3.96c1.11.82 3.3 1.45 5.65 1.48 4.93.04 8.53-2.34 8.53-6.73 0-2.66-2.12-4.19-4.17-5.25zm25.64-7.71h-6.75l-4.98 5.99c-.53.67-1.1 1.41-1.665 2.16h-.08l3.387-17.33h-5.42l-5.43 28.5h5.42l1.137-6.15 2.04-2.04 3.47 8.19h6.11l-5.37-11.25 8.13-8.06zm-34.756.65c-1.55-.51-3.743-.93-5.98-.93-9.1 0-13.27 6.89-13.27 13.36 0 4 2.277 6.66 5.61 6.66 2.16 0 4.554-1.06 6.258-4.23h.076c-.076 1.37-.254 2.66-.293 3.8h5.07c-.08-2.39.3-6.15.756-8.62l1.78-10.04zM17 483.08c-.873 4.705-2.957 6.883-4.588 6.883-1.516 0-2.157-1.55-2.157-3.43 0-3.566 2.433-8.125 5.957-8.125.565 0 1.202.167 1.62.243l-.836 4.43z" fill="#6f6f6e"/><path d="M159.45 637.795c29.354 0 53.148-23.798 53.148-53.15 0-29.35-23.794-53.15-53.15-53.15-29.357 0-53.15 23.8-53.15 53.15 0 29.352 23.793 53.15 53.15 53.15" fill="#e8476d"/><path d="M121.48 558.87c-.552 0-1 .448-1 1.002v52.032c0 .554.448 1 1 1h75.996c.553 0 1-.446 1-1v-52.032c0-.554-.447-1-1-1H121.48zm68.813 6.005l-30.814 22.608-30.82-22.608h61.63zm2.184 42.026H126.48v-36.18l29.45 21.61 3.55 2.6 3.547-2.6 29.45-21.6v36.18z" fill="#fff"/><path d="M53.15 637.795c29.354 0 53.15-23.798 53.15-53.15 0-29.35-23.796-53.15-53.15-53.15-29.36 0-53.15 23.8-53.15 53.15 0 29.352 23.79 53.15 53.15 53.15" fill="#4b4b4b"/><path d="M15.182 558.87c-.553 0-1 .448-1 1.002v52.032c0 .554.447 1 1 1h75.995c.553 0 1-.446 1-1v-52.032c0-.554-.447-1-1-1H15.182zm68.812 6.005L53.18 587.483l-30.814-22.608h61.628zm2.183 42.026H20.182v-36.18l29.45 21.61 3.548 2.6 3.547-2.6 29.45-21.6v36.18z" fill="#6f6f6e"/><path d="M159.45 744.095c29.354 0 53.148-23.8 53.148-53.152 0-29.35-23.794-53.148-53.15-53.148-29.357 0-53.15 23.798-53.15 53.148 0 29.353 23.793 53.152 53.15 53.152" fill="#64c914"/><path d="M157.192 716.843c7.22 0 13.82-2.584 18.885-6.857.168-.147 11.41 9.636 11.41 9.636s-10.523-10.452-10.333-10.64c5.442-5.395 8.853-13.782 8.942-20.365 0-15.586-12.94-28.224-28.904-28.224-15.966 0-28.904 12.638-28.904 28.224 0 15.588 12.938 28.226 28.904 28.226" fill="none" stroke="#fff" stroke-width="8.858"/><path d="M53.15 744.095c29.354 0 53.15-23.8 53.15-53.152 0-29.35-23.796-53.148-53.15-53.148-29.36 0-53.15 23.798-53.15 53.148 0 29.353 23.79 53.152 53.15 53.152" fill="#4b4b4b"/><path d="M50.893 716.843c7.22 0 13.82-2.584 18.884-6.857.17-.147 11.41 9.636 11.41 9.636s-10.522-10.452-10.332-10.64c5.442-5.395 8.853-13.782 8.942-20.365 0-15.586-12.94-28.224-28.904-28.224-15.966 0-28.904 12.638-28.904 28.224 0 15.588 12.93 28.226 28.9 28.226" fill="none" stroke="#6f6f6e" stroke-width="8.858"/></svg>