<svg xmlns="http://www.w3.org/2000/svg" viewBox="0 0 141.73228 106.29921" height="30mm" width="40mm"><path fill="#5e35b0" d="M0 .04h128.56v13.28H0z"/><path fill="#e1bde7" d="M128.56.04h13.2v106.24h-13.2z"/><path fill="#cf92d9" d="M115.38 13.32h13.18v92.96h-13.18z"/><path fill="#5c6bc3" d="M0 13.32h115.38V26.6H0z"/><path fill="#ba68c8" d="M102.2 26.6h13.18v79.68h-13.2z"/><path fill="#7985cc" d="M0 26.6h102.2v13.28H0z"/><path fill="#ab45bc" d="M89 39.88h13.2v66.4H89z"/><path fill="#a0a8dc" d="M0 39.88h89v13.28H0z"/><path fill="#9d26b0" d="M75.82 53.16h13.2v53.12H75.8z"/><path fill="#c3c7e6" d="M0 53.16h75.82v13.28H0z"/><path fill="#8c23b0" d="M62.63 66.44h13.2v39.84h-13.2z"/><path fill="#8ec8fa" d="M0 66.44h62.63v13.28H0z"/><path fill="#c3165b" d="M49.45 79.72h13.18v26.56H49.45z"/><path fill="#bbe0fd" d="M0 79.72h49.45V93H0z"/><path fill="#c62728" d="M36.26 93.03h13.2v13.28h-13.2z"/><path fill="#e4f2fe" d="M0 93h36.26v13.28H0z"/></svg>